# xmcd
#
# Track frame offsets: 
#        150
#        16628
#        32415
#        48343
#        65044
#        80895
#        95094
#        110441
#        125723
#        146459
#        162755
#        179872
#        195285
#        214124
#        228601
#        245290
#        262867
#        288914
#
# Disc length: 4651 seconds
#
# Revision: 2
# Processed by: cddbd v1.5.2PL0 Copyright (c) Steve Scherf et al.
# Submitted via: ExactAudioCopy v1.3
#
DISCID=fd122912
DTITLE=Various Artists (Priester) - Gute Wahl - Das Beste aus deutsche
DTITLE=n Diskotheken Vol.17
DYEAR=2006
DGENRE=Discofox
TTITLE0=Freddy Breck - Sinfonie D'Amour (DJ Mix)
TTITLE1=Xandra Hag - Wem gehör'n die Schuh? (Dance Mix)
TTITLE2=Sandy Wagner - Dafür kriegst Du 'ne glatte 6
TTITLE3=Dariah - Die ganze Welt ist himmelblau (Rhythmus der Nacht Mix
TTITLE3=)
TTITLE4=Steffen Jürgens - Manchmal werden Wunder wahr
TTITLE5=Uta Bresan - Komm laß uns tanzen
TTITLE6=Olaf Berger - Dein Herz gehört mir
TTITLE7=Gaby Baginsky - Ich verlieb' mich immer wieder auf's neue
TTITLE8=Peter Sebastian - Ich lieb' Dich (Maxi Version)
TTITLE9=Marco Kloss - Ich sterbe nicht nochmal (Discomix)
TTITLE10=Leonard - Trotz allem lieb' ich Dich
TTITLE11=Michael Larsen - Wahrscheinlich blond
TTITLE12=Steffen Jürgens - Gina
TTITLE13=Jürgen Renfordt - Wenn Du nicht wärst (Singleversion)
TTITLE14=Marc Andrée - Ich mach das nur mit Dir (Radio Version)
TTITLE15=Tommy Steiner - Roy Black Hitmix
TTITLE16=Jörg Bausch - HitMix 2005
TTITLE17=Michael Wendler - Hitmix ''Disco Deluxe'' Non-Stop
EXTD=
EXTT0=
EXTT1=
EXTT2=
EXTT3=
EXTT4=
EXTT5=
EXTT6=
EXTT7=
EXTT8=
EXTT9=
EXTT10=
EXTT11=
EXTT12=
EXTT13=
EXTT14=
EXTT15=
EXTT16=
EXTT17=
PLAYORDER=
